<?xml version="1.0" standalone="no"?>
<!DOCTYPE svg PUBLIC "-//W3C//DTD SVG 20010904//EN"
 "http://www.w3.org/TR/2001/REC-SVG-20010904/DTD/svg10.dtd">
<svg version="1.0" xmlns="http://www.w3.org/2000/svg"
 width="735.000000pt" height="931.000000pt" viewBox="0 0 735.000000 931.000000"
 preserveAspectRatio="xMidYMid meet">

<g transform="translate(0.000000,931.000000) scale(0.100000,-0.100000)"
fill="#000000" stroke="none">
<path d="M3250 8721 c-186 -17 -561 -125 -716 -206 -16 -8 -34 -15 -39 -15
-22 0 -221 -123 -293 -182 -100 -80 -236 -212 -273 -265 -58 -82 -47 -188 37
-375 68 -152 134 -309 134 -318 0 -4 -28 -26 -62 -48 -35 -23 -91 -67 -125
-99 -78 -73 -132 -178 -159 -307 -15 -77 -16 -98 -5 -159 29 -173 155 -322
318 -378 31 -10 73 -19 93 -19 32 0 42 -6 72 -45 50 -64 125 -123 182 -143 52
-18 70 -41 156 -193 47 -85 122 -199 149 -227 12 -12 20 -26 17 -30 -3 -5 -31
-14 -63 -21 -193 -43 -470 -141 -578 -207 -61 -36 -205 -138 -260 -183 -74
-61 -196 -194 -236 -257 -97 -150 -122 -225 -121 -352 1 -80 29 -153 90 -238
28 -38 166 -161 240 -213 18 -13 31 -25 29 -27 -2 -2 -30 -9 -63 -15 -188 -33
-428 -136 -569 -244 -163 -125 -332 -352 -400 -536 -55 -148 -44 -412 25 -614
38 -111 138 -308 198 -391 131 -179 378 -336 614 -390 120 -27 314 -33 467
-14 46 6 85 9 88 7 2 -3 -3 -33 -12 -67 -28 -107 -55 -272 -55 -332 0 -64 19
-120 53 -156 18 -19 22 -35 22 -87 0 -61 2 -66 40 -105 37 -38 162 -110 190
-110 7 0 35 7 62 16 47 15 52 15 89 -4 163 -83 610 -102 892 -37 62 14 79 23
113 58 45 47 50 83 22 143 -23 46 -73 72 -166 84 -39 5 -115 24 -167 42 l-95
33 2 34 c1 19 8 57 16 85 8 28 22 85 32 126 35 149 97 355 130 429 18 42 50
123 71 179 l38 104 13 -54 c6 -29 19 -93 28 -143 16 -96 46 -222 70 -295 8
-25 27 -90 41 -145 30 -109 133 -428 158 -487 9 -21 16 -55 16 -77 0 -77 27
-104 128 -131 51 -13 111 -7 204 22 65 20 70 20 177 4 201 -29 507 -13 611 32
133 58 146 191 25 259 -22 12 -64 27 -93 34 -34 7 -55 17 -59 27 -3 10 -29 76
-58 147 -29 72 -62 159 -74 195 -32 101 -142 530 -216 850 -20 85 -42 180 -49
210 -18 72 -25 129 -35 278 l-9 124 36 81 c43 101 94 293 122 469 12 73 33
189 45 258 13 69 29 168 35 220 7 52 16 99 20 104 5 5 27 4 52 -2 24 -6 91
-21 150 -34 107 -22 107 -23 89 -43 -82 -88 -227 -358 -292 -540 -39 -113 -42
-128 -47 -254 -5 -150 10 -288 39 -366 54 -140 132 -260 219 -336 70 -60 227
-160 330 -209 175 -84 287 -102 543 -89 253 13 334 32 521 124 397 193 571
432 583 800 6 183 -25 323 -113 497 -84 167 -279 377 -434 468 -71 42 -210
100 -238 100 -38 0 -42 14 -21 58 23 45 20 111 -6 132 -11 10 -11 18 1 52 8
22 14 58 14 80 0 34 -7 47 -39 80 -22 21 -45 58 -53 81 -9 30 -26 51 -58 75
l-46 34 8 66 c41 375 -61 612 -263 612 -30 0 -90 -9 -133 -20 -59 -15 -95 -19
-142 -14 -87 9 -135 -7 -224 -72 -139 -102 -165 -141 -158 -233 5 -67 64 -199
132 -297 25 -35 43 -64 40 -64 -3 0 -38 13 -77 29 -180 73 -306 121 -526 199
l-104 37 -1 70 c-1 51 -7 82 -23 112 l-22 42 63 60 c34 34 89 80 122 102 85
60 121 96 165 162 55 84 89 217 75 292 -8 38 -20 43 -47 19 -16 -15 -17 -5
-12 198 7 279 -14 412 -101 642 -14 37 -26 74 -26 82 0 7 40 34 89 60 49 26
112 66 139 90 86 76 153 238 133 325 -29 122 -61 144 -206 137 -110 -6 -151
-19 -344 -110 -85 -40 -107 -46 -117 -36 -26 27 -144 242 -183 336 -22 53 -63
174 -91 267 -82 278 -89 294 -143 346 -56 55 -171 115 -246 129 -78 15 -232
20 -331 11z m240 -114 l65 -12 11 -135 c7 -74 17 -166 23 -205 15 -84 58 -301
66 -326 6 -17 0 -19 -72 -19 -71 0 -277 -20 -363 -35 l-35 -7 -23 108 c-32
149 -102 355 -161 480 -33 70 -46 106 -38 109 149 47 394 67 527 42z m230
-899 c12 -44 24 -87 27 -94 4 -11 -38 -13 -214 -14 -120 -1 -234 -2 -253 -3
-34 -2 -35 -1 -47 47 -7 27 -13 62 -15 79 -3 29 0 31 37 40 95 21 139 25 286
26 l157 1 22 -82z m-25 -218 c11 -4 -31 -12 -105 -19 -190 -19 -578 -77 -668
-100 -134 -35 -435 -147 -557 -209 -142 -71 -259 -185 -300 -291 -29 -78 -34
-192 -11 -281 8 -30 13 -56 12 -58 -9 -8 -92 98 -114 146 -33 72 -41 171 -19
236 20 59 77 143 130 195 108 104 313 214 477 256 36 9 90 25 120 35 73 26
220 55 350 69 58 7 137 16 175 20 84 11 482 11 510 1z m659 -185 c31 -9 54
-51 131 -250 92 -238 120 -399 105 -607 -15 -211 -21 -249 -38 -256 -8 -3 -53
2 -100 11 -66 13 -100 26 -157 62 -82 51 -135 75 -165 75 -30 0 -24 -13 17
-35 20 -11 65 -41 99 -66 34 -25 89 -58 123 -73 57 -25 69 -27 159 -23 53 2
106 6 117 8 40 8 18 -79 -44 -168 -115 -169 -275 -256 -434 -239 -79 9 -188
47 -258 91 -70 43 -93 46 -86 10 10 -54 -118 -113 -264 -122 -181 -12 -379 58
-496 174 -49 49 -110 134 -128 177 l-16 39 23 -7 c50 -15 178 -18 225 -7 67
17 195 84 276 143 104 77 168 93 252 63 48 -17 55 -18 55 -5 0 5 -17 21 -37
35 -31 20 -49 25 -103 25 -74 0 -125 -20 -230 -91 -88 -60 -216 -109 -300
-116 -53 -4 -81 -1 -133 16 -108 35 -110 33 -76 -67 75 -223 307 -405 565
-443 85 -13 203 -1 270 27 35 14 38 14 60 -7 17 -16 40 -24 78 -27 50 -4 56
-2 92 31 38 33 40 34 75 22 57 -20 185 -38 224 -32 19 3 35 3 35 -1 -2 -15
-99 -84 -167 -117 -141 -69 -178 -77 -393 -82 -169 -4 -211 -2 -312 16 -215
39 -395 117 -501 220 -71 67 -227 264 -277 350 -39 65 -42 74 -27 83 32 17 17
35 -45 58 -76 26 -173 83 -210 121 -71 76 -50 208 39 246 32 13 41 13 86 -2
56 -18 77 -15 77 14 0 33 -54 63 -125 69 l-64 5 31 85 c68 194 169 299 395
411 189 93 267 114 583 151 123 14 165 15 600 14 201 0 378 -4 394 -9z m1270
-1616 c71 -42 112 -183 102 -354 -3 -60 -10 -126 -14 -145 l-8 -35 -84 -3
c-106 -3 -200 -24 -298 -64 l-75 -32 -32 37 c-62 71 -205 382 -205 444 0 58
155 174 213 159 28 -7 80 -80 135 -192 22 -44 47 -86 56 -93 28 -24 39 -2 34
70 -4 51 -14 84 -42 139 -20 39 -36 73 -36 75 0 7 48 12 132 14 71 1 93 -3
122 -20z m-1344 -266 c0 -51 -15 -79 -26 -49 -8 20 -30 21 -38 1 -3 -8 -1 -38
4 -66 17 -89 14 -108 -27 -146 -35 -34 -39 -35 -99 -31 -44 3 -72 11 -97 28
-36 25 -36 25 -31 85 5 50 11 64 35 86 50 44 26 82 -28 44 -19 -13 -22 -13
-27 1 -11 28 -7 33 47 50 28 9 97 40 152 68 l100 52 17 -35 c10 -20 18 -59 18
-88z m-975 -6 c50 -9 123 -20 164 -24 67 -7 74 -10 78 -31 2 -19 0 -22 -22
-16 -21 5 -25 3 -25 -18 0 -13 6 -32 13 -43 77 -112 9 -193 -170 -203 -107 -6
-145 2 -184 39 -29 27 -31 33 -26 72 3 24 13 56 21 72 22 42 20 65 -5 65 -18
0 -20 4 -14 27 3 15 13 42 20 60 12 28 17 32 37 25 13 -5 64 -16 113 -25z
m576 -44 c14 -37 6 -141 -15 -181 -16 -31 -61 -62 -89 -62 -11 0 -14 14 -13
60 1 43 -4 64 -16 76 -16 16 -17 15 -23 -12 -22 -98 -48 -134 -84 -114 -12 6
-21 21 -22 33 0 12 -6 38 -12 57 -10 30 -9 40 5 70 10 19 18 47 18 62 l0 27
113 4 c61 1 115 4 120 5 4 1 12 -10 18 -25z m103 -289 c38 -17 58 -33 61 -47
5 -21 27 -252 40 -407 4 -41 10 -102 15 -135 5 -33 19 -172 30 -310 11 -137
27 -308 36 -379 14 -127 14 -129 -6 -151 -12 -12 -36 -31 -55 -41 -42 -22 -42
-22 -141 103 -41 51 -83 97 -94 103 -25 14 -41 6 -147 -76 -46 -35 -100 -75
-122 -88 -36 -23 -40 -24 -53 -8 -18 21 -47 64 -75 110 l-22 36 34 61 c54 98
91 218 105 345 10 85 11 201 6 450 -3 184 -9 353 -12 376 l-6 41 87 -5 c85 -5
207 17 221 39 9 15 39 10 98 -17z m-1019 5 c25 -6 56 -23 71 -38 25 -24 26
-30 20 -91 -3 -36 -9 -84 -12 -107 -5 -31 -3 -43 6 -43 22 0 67 58 80 105 16
56 35 63 143 47 90 -13 150 -43 177 -88 30 -47 28 -163 -4 -229 -31 -68 -111
-171 -153 -199 l-35 -24 -58 24 c-48 19 -126 39 -317 80 -21 4 -23 10 -24 82
0 72 -23 222 -48 320 -38 144 13 197 154 161z m2770 -30 c87 -22 96 -70 20
-114 -63 -38 -158 -44 -253 -17 -40 12 -79 19 -87 16 -27 -11 -27 -38 0 -62
26 -21 26 -24 11 -41 -29 -32 -37 -79 -20 -119 13 -33 13 -37 -5 -56 -34 -36
-42 -72 -27 -115 l13 -39 -36 -10 c-20 -6 -60 -14 -89 -18 l-53 -7 3 233 3
233 45 23 c60 30 206 82 261 93 64 13 164 13 214 0z m-571 -44 c3 -9 0 -15 -9
-15 -8 0 -15 7 -15 15 0 8 4 15 9 15 5 0 11 -7 15 -15z m724 -144 c12 -83
-203 -189 -337 -166 -49 8 -71 27 -71 62 0 53 21 62 133 57 l102 -5 75 39 c41
21 80 38 85 37 6 -1 11 -12 13 -24z m-778 -108 c0 -91 -15 -271 -22 -279 -2
-2 -14 0 -27 3 -22 5 -23 9 -17 57 17 136 50 316 58 316 4 0 8 -44 8 -97z
m780 -112 c0 -31 -37 -68 -98 -98 -50 -25 -68 -28 -154 -28 -82 0 -100 3 -125
21 -19 15 -28 30 -28 50 l0 29 130 1 c104 0 142 5 190 21 76 27 85 27 85 4z
m82 -187 c323 -116 560 -355 677 -684 67 -188 69 -391 4 -544 -52 -123 -150
-251 -263 -341 -76 -60 -91 -69 -225 -123 -272 -111 -506 -145 -730 -106 -49
8 -109 25 -134 36 -25 11 -62 26 -83 34 -87 30 -273 168 -341 252 -92 116
-165 269 -187 395 -18 102 -8 313 19 412 58 212 158 389 295 525 l66 65 112
12 c62 6 114 10 116 8 2 -2 -42 -54 -97 -116 -56 -62 -101 -121 -101 -129 0
-42 19 -31 140 84 36 33 94 85 130 115 36 30 73 61 82 69 15 13 29 13 90 3 57
-10 92 -10 158 -1 65 9 161 38 197 59 1 0 35 -11 75 -25z m-3226 2 c3 -8 -59
-77 -157 -175 -133 -132 -167 -161 -191 -161 -15 0 -28 4 -28 9 0 15 54 75
160 176 167 159 203 184 216 151z m309 -68 c147 -30 255 -93 255 -150 0 -26
-16 -54 -34 -61 -20 -8 -145 17 -220 43 -61 21 -96 19 -96 -4 0 -14 57 -41
148 -71 71 -23 84 -38 76 -83 -9 -48 -51 -112 -82 -123 -35 -14 -113 -11 -168
6 -27 8 -57 15 -66 15 -64 0 50 -103 142 -130 25 -8 24 -8 -12 -24 -46 -20
-74 -20 -163 -1 -99 20 -205 76 -253 134 -48 57 -94 129 -90 142 2 5 77 83
168 175 l165 165 65 -6 c36 -4 110 -16 165 -27z m-946 -302 c106 -37 168 -45
188 -25 17 17 111 -8 124 -32 12 -24 9 -25 -95 -39 -139 -18 -336 -89 -336
-120 0 -13 -5 -13 92 9 46 11 147 27 225 36 l142 16 65 -69 c38 -40 87 -79
118 -95 50 -25 192 -67 228 -67 22 0 48 -63 89 -207 48 -174 55 -222 48 -366
-8 -173 -34 -273 -123 -465 -19 -41 -34 -77 -34 -81 0 -20 -104 -153 -161
-205 -69 -63 -178 -138 -246 -168 -23 -10 -93 -32 -155 -49 -99 -27 -134 -32
-279 -36 -139 -4 -186 -2 -286 16 -204 35 -287 74 -438 201 -182 153 -285 300
-348 495 -76 235 -61 466 44 678 91 186 218 321 402 430 118 70 326 141 506
172 93 16 101 15 230 -29z m1799 -469 c53 -78 122 -147 148 -147 8 0 34 9 56
20 23 11 45 20 49 20 16 0 59 -108 75 -185 8 -44 19 -159 23 -255 7 -152 13
-195 46 -330 119 -495 223 -884 295 -1103 44 -137 47 -197 8 -218 -34 -18
-180 -40 -327 -48 -140 -9 -237 -3 -353 20 l-56 11 -32 82 c-50 124 -98 270
-126 381 -14 55 -38 141 -54 190 -43 138 -120 488 -120 548 0 16 14 60 31 99
17 38 31 82 32 96 2 23 -2 27 -23 27 -21 0 -31 -12 -67 -85 -50 -99 -197 -440
-223 -514 -9 -28 -33 -96 -53 -151 -35 -99 -141 -436 -172 -547 -10 -39 -21
-59 -35 -63 -31 -10 -354 -7 -468 4 -72 7 -136 22 -212 48 l-110 37 0 43 c0
51 35 278 54 348 8 28 17 62 20 76 5 22 19 32 88 59 246 98 407 234 507 430
86 167 150 334 177 460 21 101 28 265 15 350 l-12 75 38 30 c50 39 203 192
228 228 l20 29 56 -84 c70 -106 89 -114 167 -73 31 16 77 46 102 66 51 40 141
99 152 99 4 0 29 -33 56 -73z"/>
<path d="M4125 7247 c-31 -30 -45 -52 -45 -70 0 -15 2 -27 5 -27 3 0 29 16 58
35 88 60 167 40 227 -56 16 -27 34 -49 40 -49 13 0 12 37 -3 75 -38 97 -88
135 -177 135 -57 0 -62 -2 -105 -43z"/>
<path d="M3184 7231 c-57 -42 -101 -91 -118 -133 -35 -84 -6 -106 43 -34 67
97 203 125 320 67 l61 -31 0 25 c0 63 -117 135 -219 135 -37 0 -57 -6 -87 -29z"/>
<path d="M2535 6898 c-60 -11 -80 -25 -64 -44 21 -26 146 -11 178 21 14 14 14
17 1 25 -18 12 -48 11 -115 -2z"/>
<path d="M4131 6853 c-12 -10 -24 -35 -28 -55 -5 -32 -1 -41 24 -67 27 -27 33
-29 69 -21 43 10 64 32 64 67 0 75 -76 119 -129 76z"/>
<path d="M2522 6800 c-38 -4 -70 -14 -80 -24 -15 -15 -15 -17 1 -33 14 -15 27
-15 107 -6 60 7 97 16 108 27 32 32 -27 47 -136 36z"/>
<path d="M3256 6785 c-33 -30 -35 -81 -5 -119 17 -22 28 -26 69 -26 41 0 52 4
70 27 16 21 20 36 15 63 -13 74 -95 105 -149 55z"/>
<path d="M3907 6634 c-4 -4 15 -34 42 -68 71 -89 94 -141 87 -188 -14 -84 -60
-115 -154 -104 -31 3 -67 9 -79 12 -34 9 -28 -13 8 -35 76 -46 173 -34 236 31
35 36 38 43 38 96 0 47 -7 68 -37 122 -53 94 -118 156 -141 134z"/>
<path d="M3767 4822 c-21 -23 -22 -76 -1 -96 21 -21 77 -20 96 2 46 51 24 112
-41 112 -24 0 -44 -7 -54 -18z"/>
<path d="M3822 4453 c-23 -5 -52 -53 -52 -88 0 -28 38 -55 78 -55 44 0 67 15
75 49 10 40 -36 105 -70 100 -4 -1 -19 -4 -31 -6z"/>
<path d="M5566 4234 c-21 -21 -20 -47 4 -94 11 -22 20 -41 20 -42 0 -2 -16
-12 -35 -22 l-35 -19 -40 42 c-32 33 -47 41 -75 41 -52 0 -64 -32 -36 -91 11
-24 26 -52 33 -61 11 -15 7 -24 -29 -60 -91 -95 -112 -202 -60 -305 53 -103
147 -148 277 -133 41 5 82 11 90 14 10 4 19 -3 27 -21 71 -172 123 -299 123
-304 0 -8 -160 -43 -166 -37 -2 3 3 21 11 41 13 32 13 41 1 71 -17 41 -42 56
-91 56 -76 0 -141 -54 -161 -133 -9 -38 13 -85 48 -103 41 -21 169 -28 268
-15 47 6 93 13 104 14 14 2 24 -14 45 -73 21 -62 30 -76 50 -78 13 -2 28 1 33
6 15 15 11 90 -6 139 l-14 41 46 18 c44 16 46 16 56 -1 39 -64 54 -80 79 -83
38 -5 43 17 22 93 l-17 64 54 54 c70 71 98 143 100 252 1 67 -3 90 -26 140
-35 78 -64 107 -139 141 -63 28 -124 35 -212 24 l-40 -5 -47 90 c-26 50 -47
93 -47 96 -1 4 18 9 42 13 103 16 126 35 104 86 -19 47 -110 159 -129 159 -24
1 -41 -34 -33 -71 8 -35 -5 -48 -47 -48 -17 0 -29 6 -33 19 -3 10 -19 37 -35
60 -32 44 -58 51 -84 25z m148 -366 c47 -86 48 -92 31 -105 -30 -21 -40 -16
-64 35 -13 26 -36 66 -52 89 l-28 43 22 15 c12 8 26 15 32 15 6 0 32 -41 59
-92z m-206 -25 c30 -42 82 -133 82 -142 0 -13 -86 -32 -107 -24 -62 22 -77 82
-39 148 15 25 31 45 36 45 5 0 17 -12 28 -27z m640 -300 c58 -43 52 -140 -15
-214 -34 -38 -53 -43 -53 -14 0 8 -16 49 -36 92 -31 65 -64 148 -64 159 0 1
12 4 28 6 47 5 112 -8 140 -29z m-236 -80 c22 -49 53 -117 70 -151 16 -35 28
-65 26 -66 -2 -2 -22 -10 -44 -19 -43 -16 -54 -14 -54 11 0 13 -64 181 -95
249 -24 50 -20 55 43 62 8 0 31 -37 54 -86z"/>
<path d="M6466 3160 c-117 -135 -252 -244 -429 -344 -51 -29 -57 -49 -16 -54
54 -6 300 137 385 225 53 54 133 160 145 191 38 100 12 95 -85 -18z"/>
<path d="M2299 3726 c-20 -14 -52 -43 -70 -66 l-34 -40 -60 11 c-78 14 -144 5
-214 -31 -68 -34 -110 -77 -147 -150 -40 -77 -41 -181 -3 -257 l26 -53 -76
-72 c-42 -40 -106 -101 -144 -136 l-67 -64 -14 33 c-7 19 -16 52 -19 74 l-6
40 58 18 c124 39 179 168 103 239 -70 66 -178 30 -235 -77 -19 -35 -22 -55
-21 -170 0 -111 3 -138 22 -184 19 -45 21 -56 10 -71 -7 -9 -28 -36 -45 -60
-39 -51 -42 -77 -10 -85 28 -7 71 8 113 40 l30 23 43 -50 43 -49 -19 -22 c-33
-37 -36 -47 -17 -68 23 -26 52 -24 98 7 37 25 40 26 80 13 23 -8 82 -14 136
-14 114 0 194 25 285 89 72 50 116 106 145 183 34 89 16 161 -57 237 -27 27
-34 41 -27 52 85 126 169 246 175 249 4 3 12 -10 20 -28 40 -101 82 -113 147
-43 49 53 82 115 82 155 0 57 -52 47 -107 -20 l-32 -40 -20 40 -20 39 54 68
c56 70 71 108 60 144 -11 35 -38 22 -105 -51 l-65 -71 -43 28 c-23 15 -42 32
-42 38 0 6 12 29 27 51 17 25 27 53 27 79 1 50 -15 56 -65 22z m-189 -194 c0
-9 -85 -113 -148 -182 -23 -25 -42 -48 -42 -52 0 -19 -19 -5 -30 22 -28 68 12
164 85 200 39 20 135 28 135 12z m195 -85 l29 -24 -47 -59 c-181 -229 -177
-225 -195 -214 -27 16 -52 37 -52 44 0 3 22 34 48 69 26 34 72 99 101 144 58
90 56 89 116 40z m-338 -483 c5 -1 -230 -230 -265 -259 l-33 -27 -39 27 c-21
15 -41 32 -43 39 -3 7 30 44 74 81 44 38 111 102 150 143 l72 74 41 -39 c22
-21 42 -38 43 -39z m93 -164 c0 -92 -86 -164 -188 -158 l-49 3 106 117 c94
104 107 116 119 101 6 -9 12 -38 12 -63z"/>
<path d="M2481 2405 c-72 -73 -198 -143 -338 -190 -131 -42 -100 -82 39 -51
118 27 227 86 314 170 64 62 75 77 72 101 -2 16 -7 30 -13 32 -5 1 -39 -26
-74 -62z"/>
<path d="M5883 757 c-44 -48 -87 -118 -174 -283 -97 -184 -94 -187 185 -192
296 -6 320 2 276 87 -11 23 -41 89 -66 148 -56 132 -111 242 -132 266 -24 27
-46 20 -89 -26z m122 -248 c30 -61 55 -116 55 -122 0 -9 -38 -12 -135 -11 -74
0 -138 4 -141 7 -4 4 4 24 18 44 14 21 40 63 58 93 18 30 39 65 47 78 25 40
41 25 98 -89z"/>
<path d="M6222 778 c-23 -45 -32 -116 -31 -258 0 -112 4 -155 17 -189 21 -55
45 -72 68 -49 15 14 18 48 20 240 4 265 3 278 -35 278 -19 0 -31 -7 -39 -22z"/>
<path d="M6549 771 c-24 -15 -86 -69 -136 -118 -127 -123 -127 -126 9 -255
115 -110 159 -139 186 -122 42 27 19 58 -143 202 -26 23 -46 44 -44 45 2 1 51
45 108 97 116 106 134 135 101 162 -28 23 -28 23 -81 -11z"/>
<path d="M5538 771 c-114 -6 -146 -20 -132 -55 11 -29 44 -34 175 -30 211 6
244 15 237 66 -3 22 -7 23 -88 24 -47 0 -133 -2 -192 -5z"/>
<path d="M6786 751 c-87 -6 -90 -7 -99 -34 -17 -52 0 -58 187 -60 166 -2 168
-2 187 22 11 13 18 29 16 35 -11 33 -129 48 -291 37z"/>
<path d="M5440 578 c-21 -11 -26 -23 -31 -73 -17 -156 -3 -235 42 -235 23 0
34 25 43 100 4 30 9 71 12 91 l5 36 71 7 c99 9 124 26 98 66 -13 21 -204 27
-240 8z"/>
<path d="M6695 536 c-17 -26 -17 -28 1 -47 28 -28 193 -39 217 -14 21 21 22
49 2 65 -9 7 -55 15 -109 18 -93 5 -94 4 -111 -22z"/>
<path d="M6710 352 c-21 -17 -23 -23 -12 -46 15 -34 33 -37 206 -34 l149 3 20
28 c19 25 20 29 5 43 -13 13 -47 17 -180 21 -152 5 -165 4 -188 -15z"/>
</g>
</svg>
